<svg width="700" height="939" viewBox="0 0 700 939" fill="none" xmlns="http://www.w3.org/2000/svg">
<path d="M251.865 189.036C245.784 150.758 248.02 131.872 265.95 104.553C326.09 88.0498 359.022 87.5829 416.183 104.553C436.752 129.532 437.306 149.376 430.267 189.036C512.094 185.432 553.93 186.179 585.195 217.197L627.448 282.905H679.091C696.133 298.513 698.398 336.659 686.743 354.834L679.091 367.388H646.227L646.257 367.866C658.99 571.313 676.095 844.632 627.448 893.056C618.678 901.786 597.778 909.247 569 915.277C438.021 942.718 143.86 940.484 87.5482 893.056C21.0478 837.047 40.1205 421.875 64.6047 371.178C52.1529 369.98 39.4654 368.717 26.516 367.388C-0.0363884 334.395 -1.62938 315.897 26.516 282.905H87.5482C93.0485 257.244 87.5482 240.664 101.633 217.197C115.717 193.729 171.608 184.757 251.865 189.036Z" fill="#B8DA3D"/>
<path d="M627.448 282.905C610.947 257.244 601.696 242.857 585.195 217.197C553.93 186.179 512.094 185.432 430.267 189.036C437.306 149.376 436.752 129.532 416.183 104.553C359.022 87.5829 326.09 88.0498 265.95 104.553C248.02 131.872 245.784 150.758 251.865 189.036C171.608 184.757 115.717 193.729 101.633 217.197C87.5482 240.664 93.0485 257.244 87.5482 282.905M627.448 282.905C425.963 308.063 308.588 308.774 87.5482 282.905M627.448 282.905H679.091C696.133 298.513 698.398 336.659 686.743 354.834L679.091 367.388H646.227M87.5482 282.905H26.516C-1.62938 315.897 -0.0363884 334.395 26.516 367.388C267.463 392.114 417.751 394.31 646.227 367.388M646.227 367.388C658.963 570.885 676.133 844.594 627.448 893.056C618.678 901.786 597.778 909.247 569 915.277C438.021 942.718 143.86 940.484 87.5482 893.056C18.8634 835.207 41.4658 394.212 67.0321 367.388" stroke="#643744" stroke-width="12"/>
<path d="M24.0891 355.931C10.2361 331.771 -10.8104 316.753 29.0469 281C321.825 317.119 603.818 286.282 681.651 285.415C705.493 311.914 689.467 359.508 678.043 360.491C593.334 393.115 37.942 380.09 24.0891 355.931Z" fill="#FFEF8D"/>
<path d="M102.41 798.463C80.1767 663.267 84.493 583.269 109.701 445.293C114.161 420.886 136.424 403.91 161.183 405.514C345.241 417.444 457.026 413.799 586.627 396.603C615.158 392.817 641.237 413.766 643.165 442.483C651.585 567.93 658.976 665.824 649.699 787.202C648.08 808.388 632.435 825.791 611.691 830.394C427.144 871.351 336.393 896.199 135.602 836.199C118.262 831.018 105.346 816.32 102.41 798.463Z" fill="#DFF475"/>
<path d="M573.284 398.151C602.858 395.635 622.407 391.773 641.5 387L654 639.5C653.011 653.343 643.421 652.492 621.742 651.533C621.254 651.511 620.75 651.448 620.272 651.345C587.638 644.278 575.286 626.125 557.17 588.812C540.184 550.571 535.376 525.636 541.622 470.791C541.671 470.362 541.754 469.92 541.864 469.502C549.759 439.6 553.874 421.843 566.618 402.072C568.088 399.791 570.58 398.381 573.284 398.151Z" fill="#BDFB22"/>
<path d="M630.804 321.564C647.304 321.564 662.442 314.529 682.235 302.225C685.8 300.009 690.679 301.279 691.903 305.294C693.356 310.065 692.841 312.81 692.859 318.156C692.868 320.835 691.516 323.373 689.195 324.712C672.123 334.555 658.079 343.555 633.792 342.973C631.886 342.928 630.101 342.05 628.958 340.523C624.822 334.996 616.266 321.564 630.804 321.564Z" fill="#FFF6DD"/>
<path d="M32.4266 311.691C26.4394 306.586 22.7744 300.159 26.5328 284.81C26.8278 283.605 27.2344 282.399 28.1458 281.557C38.949 271.584 100.479 277.984 190.091 295.618C195.909 296.763 201.339 301.179 200.363 307.027C198.684 317.085 188.155 322.173 177.784 326.312C176.233 326.93 174.569 327.287 172.903 327.385C115.029 330.776 86.8328 329.887 37.1973 314.241C35.4671 313.695 33.807 312.868 32.4266 311.691Z" fill="#DCBE57"/>
<path d="M297.5 381.5C297.5 381.5 296.846 371.439 297.5 364L402.5 364C406.094 372.142 409.038 381.503 399.5 384C357.926 385.668 333.169 389.175 297.5 381.5Z" fill="#DCBE57"/>
<path d="M580.5 428.5C602.073 408.969 612.98 412.446 643 411L653.501 628.5C642.881 625.229 626.158 624.405 597.001 590.5C588.049 580.264 588.579 560.213 570.5 526C556.889 489.157 559.147 468.511 580.5 428.5Z" fill="#F3FFC6"/>
<path d="M25 304C34.3514 318 48.7679 320.951 57.7297 319.556M198 308.667C196.095 319.833 154.158 339.751 90.4595 321.733M57.7297 319.556V346M57.7297 319.556C76.1018 323.446 79.7105 322.605 90.4595 321.733M90.4595 321.733V336.667V346" stroke="#643744" stroke-width="5" stroke-linecap="round" stroke-linejoin="round"/>
<path d="M425.976 190.05C356.494 189.603 327.215 192.313 259.291 190.155C257.419 190.096 255.812 188.741 255.466 186.901C249.817 156.788 246.806 135.14 263.557 107.738C332.997 84.5966 365.206 89.0284 418.48 107.738C436.646 138.117 433.667 160.273 425.976 190.05Z" stroke="#643744" stroke-width="10"/>
<path d="M167.327 244.753C160.314 236.183 157.426 227.616 158.104 219.466C159.779 199.331 184.972 193.499 205.177 193.504C360.842 193.545 457.69 193.879 511.76 193.975C525.964 194 539.544 202.856 542.118 216.825C543.246 222.948 543.57 229.113 542.247 234.953C539.348 247.744 525.089 252.95 512.15 255.095C460.024 263.734 419.253 266.615 345.146 268C281.288 267.943 244.219 265.333 183.247 253.506C177.134 252.32 171.271 249.571 167.327 244.753Z" fill="#DFF475"/>
<path d="M573 565C559.462 526.221 546 498.5 566.5 471.5C597.291 466.904 559.65 519.759 601.122 557.455C608.183 563.874 614.692 574.354 609.223 582.175C607.962 583.98 606.191 585.647 603.5 587.5C590.832 586.233 584.001 582.81 573 565Z" fill="white"/>
<path d="M524.802 242C523.838 244.784 487.212 258.461 465.806 251.792C461.723 250.52 459.332 245.386 463.143 243.444C473.453 238.192 503.175 246.581 517.117 228.443C520.91 223.509 527.313 218.806 533.076 221.154C537.114 222.799 538.213 227.402 536.178 231.258C534.353 234.718 531.187 237.792 524.802 242Z" fill="white"/>
<path d="M611 606C621.068 606 623.033 601.236 621.425 595.127C619.794 588.934 610.102 590.061 603.839 591.398C600.443 592.122 596.872 594.688 598.356 597.827C600.168 601.66 603.841 606 611 606Z" fill="white"/>
<path d="M457.675 252.168C455.738 250.575 455.188 248.249 455.294 244.54C455.321 243.583 454.681 242.858 453.737 243.019C451.126 243.463 446.284 245.17 445.707 251.049C444.8 260.296 451.311 259.356 457.75 256.354C459.352 255.608 459.04 253.291 457.675 252.168Z" fill="white"/>
<circle cx="503.5" cy="426.5" r="15.5" fill="white"/>
<circle cx="487.5" cy="459.5" r="10.5" fill="white"/>
<circle cx="511.5" cy="480.5" r="7.5" fill="white"/>
<path d="M319.739 381.906L319.005 381.824L318.3 382.046L305.425 386.095C304.937 386.249 304.413 386.249 303.925 386.095L295.25 383.367C294.208 383.039 293.5 382.074 293.5 380.982V366C293.5 364.619 294.619 363.5 296 363.5H304.675H319.35H476C477.381 363.5 478.5 364.619 478.5 366V380.211C478.5 381.467 477.607 382.437 476.469 382.573C458.944 384.669 397.439 390.599 319.739 381.906Z" stroke="#643744" stroke-width="7"/>
<path d="M629.448 279.905C612.947 254.244 603.696 239.857 587.195 214.197C555.93 183.179 514.094 182.432 432.267 186.036C439.306 146.376 438.752 126.532 418.183 101.553C361.022 84.5829 328.09 85.0498 267.95 101.553C250.02 128.872 247.784 147.758 253.865 186.036C173.608 181.757 117.717 190.729 103.633 214.197C89.5482 237.664 95.0485 254.244 89.5482 279.905M629.448 279.905C427.963 305.063 310.588 305.774 89.5482 279.905M629.448 279.905H681.091C698.133 295.513 700.398 333.659 688.743 351.834L681.091 364.388H648.227M89.5482 279.905C67.8843 271.431 54.0628 273.214 28.516 279.905C0.370621 312.897 1.96361 331.395 28.516 364.388C70.087 368.654 108.959 372.249 146 375.14M648.227 364.388C660.963 567.885 678.133 841.594 629.448 890.056C621.567 897.901 603.888 904.722 579.5 910.4M648.227 364.388C627.269 366.857 606.968 369.082 587.195 371.067C572.322 372.559 573.832 372.497 559.5 373.72M69.0321 364.388C43.4658 391.212 20.8634 832.207 89.5482 890.056C106.023 903.931 142.854 913.939 190 920.466M190 920.466C160.187 687.255 161.49 569.484 190 378.293M190 920.466C307.596 936.748 489.37 931.383 579.5 910.4M190 378.293C175.594 377.358 160.946 376.306 146 375.14M190 378.293C313.569 386.312 435.476 384.308 559.5 373.72M146 375.14C125.291 486.022 124.54 535.484 128.5 617.5M559.5 529C562.572 456.943 562.711 462.393 559.5 373.72M579.5 910.4C599.163 739.934 610.78 651.307 587.195 476" stroke="#643744" stroke-width="8"/>
<path d="M298.754 54.3182C338.314 43.4345 356.259 43.022 390.589 54.3182C412.287 60.8582 423.229 68.9145 430.721 78.3363C435.318 84.1186 438.615 90.4152 442.301 97.1913C446.255 104.461 449.755 112.039 451.762 120.068C461.263 158.084 458.21 176.127 454.885 204.771C454.393 209.011 453.747 213.273 452.288 217.284C445.81 235.094 435.121 234.766 419.771 235.03C416.367 235.089 412.89 234.455 409.698 233.272C407.591 232.491 405.464 232.094 403.225 231.916C385.435 230.509 373.834 227.256 350.091 226.843C323.532 228.507 309.094 230.162 284.626 235.161C266.485 239.38 256.58 238.501 239.415 230.922C231.445 226.496 227.974 213.419 231.371 197.014C228.875 169.099 230.141 155.062 232.351 132.024C232.351 113.605 240.785 93.824 256.477 78.3363C267.266 67.6879 281.486 59.0691 298.754 54.3182Z" fill="#FF6B2B"/>
<path d="M350.091 226.843C318.616 228.522 305.233 229.896 284.626 235.161M350.091 226.843C373.834 227.256 385.435 230.509 403.225 231.916C405.464 232.094 407.591 232.491 409.698 233.272V233.272C412.89 234.455 416.367 235.089 419.771 235.03C435.121 234.766 445.81 235.094 452.288 217.284C453.747 213.273 454.393 209.011 454.885 204.771C458.21 176.127 461.263 158.084 451.762 120.068C449.755 112.039 446.255 104.461 442.301 97.1913C438.615 90.4152 435.318 84.1186 430.721 78.3363C423.229 68.9145 412.287 60.8582 390.589 54.3182C356.259 43.022 338.314 43.4345 298.754 54.3182C281.486 59.0691 267.266 67.6879 256.477 78.3363C240.785 93.824 232.351 113.605 232.351 132.024C230.141 155.062 228.875 169.099 231.371 197.014M350.091 226.843C323.532 228.507 309.094 230.162 284.626 235.161M284.626 235.161C266.485 239.38 256.58 238.501 239.415 230.922M239.415 230.922C231.445 226.496 227.974 213.419 231.371 197.014M239.415 230.922C229.894 222.254 228.947 214.247 231.371 197.014M231.371 197.014C230.995 193.524 231.65 200.128 231.371 197.014ZM231.371 197.014L256.369 188.07M455.278 201.412L428.735 189.668L408.565 180.591C399.471 176.499 389.754 173.964 379.82 173.093L354.561 170.877M256.369 188.07L286.322 178.169C291.099 176.59 296.001 175.419 300.975 174.668L323 171.344L354.561 170.877M256.369 188.07C293.557 173.166 315.128 169.904 354.561 170.877" stroke="#643744" stroke-width="8"/>
<path d="M285.626 235.843C267.485 240.062 257.58 239.183 240.415 231.604C232.445 227.178 228.974 214.101 232.371 197.696C229.875 169.781 231.141 155.744 233.351 132.706C233.351 114.287 241.785 94.5059 257.477 79.0182L257.45 106.452L257.423 133.885L257.369 188.752C265.623 185.445 273.107 182.71 280.187 180.468L284.762 178.808C291.562 176.339 298.638 174.709 305.833 173.953L309.917 173.524C314.667 172.834 319.484 172.333 324.5 171.992C333.874 171.353 343.942 171.272 355.561 171.559L380.82 173.775C390.754 174.646 400.471 177.181 409.565 181.273L429.735 190.35L429.2 197.199C428.058 211.83 420.045 225.053 407.604 232.837C387.825 231.604 376.303 227.964 351.091 227.525C324.532 229.189 310.094 230.844 285.626 235.843Z" fill="#FE9E5A"/>
<path d="M350.091 226.843C318.616 228.522 305.233 229.896 284.626 235.161M350.091 226.843C373.834 227.256 385.435 230.509 403.225 231.916C405.464 232.094 407.591 232.491 409.698 233.272V233.272C412.89 234.455 416.367 235.089 419.771 235.03C435.121 234.766 445.81 235.094 452.288 217.284C453.747 213.273 454.393 209.011 454.885 204.771C458.21 176.127 461.263 158.084 451.762 120.068C449.755 112.039 446.255 104.461 442.301 97.1913C438.615 90.4152 435.318 84.1186 430.721 78.3363C423.229 68.9145 412.287 60.8582 390.589 54.3182C356.259 43.022 338.314 43.4345 298.754 54.3182C281.486 59.0691 267.266 67.6879 256.477 78.3363C240.785 93.824 232.351 113.605 232.351 132.024C230.141 155.062 228.875 169.099 231.371 197.014M350.091 226.843C323.532 228.507 309.094 230.162 284.626 235.161M284.626 235.161C266.485 239.38 256.58 238.501 239.415 230.922M239.415 230.922C231.445 226.496 227.974 213.419 231.371 197.014M239.415 230.922C229.894 222.254 228.947 214.247 231.371 197.014M231.371 197.014C230.995 193.524 231.65 200.128 231.371 197.014ZM231.371 197.014L256.369 188.07M455.278 201.412L428.735 189.668L408.565 180.591C399.471 176.499 389.754 173.964 379.82 173.093L354.561 170.877M256.369 188.07L286.322 178.169C291.099 176.59 296.001 175.419 300.975 174.668L323 171.344L354.561 170.877M256.369 188.07C293.557 173.166 315.128 169.904 354.561 170.877" stroke="#643744" stroke-width="8"/>
<mask id="path-26-outside-1_14_334" maskUnits="userSpaceOnUse" x="305" y="62" width="81" height="99" fill="black">
<rect fill="white" x="305" y="62" width="81" height="99"/>
<path d="M332.25 138.25C333.65 138.65 335.45 138.95 337.65 139.15C339.85 139.25 341.95 139.3 343.95 139.3C347.95 139.3 351.25 138.5 353.85 136.9C356.55 135.2 357.9 132.6 357.9 129.1C357.9 125.8 356.8 123.45 354.6 122.05C352.4 120.65 349.05 119.95 344.55 119.95H332.25V138.25ZM332.25 101.65H343.2C347.5 101.65 350.6 100.85 352.5 99.25C354.5 97.65 355.5 95.3 355.5 92.2C355.5 89.5 354.35 87.35 352.05 85.75C349.85 84.15 346.5 83.35 342 83.35C340.5 83.35 338.75 83.4 336.75 83.5C334.85 83.6 333.35 83.75 332.25 83.95V101.65ZM342 159.4C340.3 159.4 338.3 159.35 336 159.25C333.7 159.15 331.3 158.95 328.8 158.65C326.4 158.35 324 157.95 321.6 157.45C319.2 157.05 317 156.45 315 155.65C309.5 153.55 306.75 149.9 306.75 144.7V74.65C306.75 72.55 307.3 70.95 308.4 69.85C309.6 68.65 311.2 67.7 313.2 67C316.6 65.8 320.85 64.95 325.95 64.45C331.05 63.85 336.3 63.55 341.7 63.55C354.5 63.55 364.35 65.7 371.25 70C378.15 74.3 381.6 80.95 381.6 89.95C381.6 94.45 380.3 98.35 377.7 101.65C375.1 104.85 371.6 107.2 367.2 108.7C372.2 110.1 376.35 112.65 379.65 116.35C383.05 120.05 384.75 124.7 384.75 130.3C384.75 140.2 381.05 147.55 373.65 152.35C366.35 157.05 355.8 159.4 342 159.4Z"/>
</mask>
<path d="M332.25 138.25C333.65 138.65 335.45 138.95 337.65 139.15C339.85 139.25 341.95 139.3 343.95 139.3C347.95 139.3 351.25 138.5 353.85 136.9C356.55 135.2 357.9 132.6 357.9 129.1C357.9 125.8 356.8 123.45 354.6 122.05C352.4 120.65 349.05 119.95 344.55 119.95H332.25V138.25ZM332.25 101.65H343.2C347.5 101.65 350.6 100.85 352.5 99.25C354.5 97.65 355.5 95.3 355.5 92.2C355.5 89.5 354.35 87.35 352.05 85.75C349.85 84.15 346.5 83.35 342 83.35C340.5 83.35 338.75 83.4 336.75 83.5C334.85 83.6 333.35 83.75 332.25 83.95V101.65ZM342 159.4C340.3 159.4 338.3 159.35 336 159.25C333.7 159.15 331.3 158.95 328.8 158.65C326.4 158.35 324 157.95 321.6 157.45C319.2 157.05 317 156.45 315 155.65C309.5 153.55 306.75 149.9 306.75 144.7V74.65C306.75 72.55 307.3 70.95 308.4 69.85C309.6 68.65 311.2 67.7 313.2 67C316.6 65.8 320.85 64.95 325.95 64.45C331.05 63.85 336.3 63.55 341.7 63.55C354.5 63.55 364.35 65.7 371.25 70C378.15 74.3 381.6 80.95 381.6 89.95C381.6 94.45 380.3 98.35 377.7 101.65C375.1 104.85 371.6 107.2 367.2 108.7C372.2 110.1 376.35 112.65 379.65 116.35C383.05 120.05 384.75 124.7 384.75 130.3C384.75 140.2 381.05 147.55 373.65 152.35C366.35 157.05 355.8 159.4 342 159.4Z" fill="white"/>
<path d="M332.25 138.25H331.25V139.004L331.975 139.212L332.25 138.25ZM337.65 139.15L337.559 140.146L337.582 140.148L337.605 140.149L337.65 139.15ZM353.85 136.9L354.374 137.752L354.383 137.746L353.85 136.9ZM354.6 122.05L354.063 122.894L354.6 122.05ZM332.25 119.95V118.95H331.25V119.95H332.25ZM332.25 101.65H331.25V102.65H332.25V101.65ZM352.5 99.25L351.875 98.4691L351.865 98.477L351.856 98.4851L352.5 99.25ZM352.05 85.75L351.462 86.5587L351.47 86.5649L351.479 86.5709L352.05 85.75ZM336.75 83.5L336.7 82.5012L336.697 82.5014L336.75 83.5ZM332.25 83.95L332.071 82.9661L331.25 83.1154V83.95H332.25ZM328.8 158.65L328.676 159.642L328.681 159.643L328.8 158.65ZM321.6 157.45L321.804 156.471L321.784 156.467L321.764 156.464L321.6 157.45ZM315 155.65L315.371 154.722L315.364 154.719L315.357 154.716L315 155.65ZM308.4 69.85L309.107 70.5571L309.107 70.5571L308.4 69.85ZM313.2 67L313.53 67.9439L313.533 67.943L313.2 67ZM325.95 64.45L326.048 65.4452L326.057 65.4443L326.067 65.4431L325.95 64.45ZM371.25 70L371.779 69.1513L371.25 70ZM377.7 101.65L378.476 102.281L378.481 102.275L378.485 102.269L377.7 101.65ZM367.2 108.7L366.877 107.753L363.826 108.794L366.93 109.663L367.2 108.7ZM379.65 116.35L378.904 117.016L378.909 117.021L378.914 117.027L379.65 116.35ZM373.65 152.35L374.191 153.191L374.194 153.189L373.65 152.35ZM331.975 139.212C333.458 139.635 335.326 139.943 337.559 140.146L337.741 138.154C335.574 137.957 333.842 137.665 332.525 137.288L331.975 139.212ZM337.605 140.149C339.818 140.25 341.933 140.3 343.95 140.3V138.3C341.967 138.3 339.882 138.25 337.695 138.151L337.605 140.149ZM343.95 140.3C348.079 140.3 351.575 139.474 354.374 137.752L353.326 136.048C350.925 137.526 347.821 138.3 343.95 138.3V140.3ZM354.383 137.746C357.406 135.843 358.9 132.904 358.9 129.1H356.9C356.9 132.296 355.694 134.557 353.317 136.054L354.383 137.746ZM358.9 129.1C358.9 125.561 357.703 122.839 355.137 121.206L354.063 122.894C355.897 124.061 356.9 126.039 356.9 129.1H358.9ZM355.137 121.206C352.698 119.654 349.119 118.95 344.55 118.95V120.95C348.981 120.95 352.102 121.646 354.063 122.894L355.137 121.206ZM344.55 118.95H332.25V120.95H344.55V118.95ZM331.25 119.95V138.25H333.25V119.95H331.25ZM332.25 102.65H343.2V100.65H332.25V102.65ZM343.2 102.65C347.579 102.65 350.972 101.844 353.144 100.015L351.856 98.4851C350.228 99.8562 347.421 100.65 343.2 100.65V102.65ZM353.125 100.031C355.412 98.2009 356.5 95.533 356.5 92.2H354.5C354.5 95.067 353.588 97.0991 351.875 98.4691L353.125 100.031ZM356.5 92.2C356.5 89.1582 355.178 86.7076 352.621 84.9291L351.479 86.5709C353.522 87.9923 354.5 89.8418 354.5 92.2H356.5ZM352.638 84.9413C350.188 83.1592 346.586 82.35 342 82.35V84.35C346.414 84.35 349.512 85.1408 351.462 86.5587L352.638 84.9413ZM342 82.35C340.479 82.35 338.712 82.4007 336.7 82.5012L336.8 84.4987C338.788 84.3993 340.521 84.35 342 84.35V82.35ZM336.697 82.5014C334.78 82.6023 333.232 82.7551 332.071 82.9661L332.429 84.9339C333.468 84.7449 334.92 84.5977 336.803 84.4986L336.697 82.5014ZM331.25 83.95V101.65H333.25V83.95H331.25ZM342 158.4C340.319 158.4 338.334 158.351 336.043 158.251L335.957 160.249C338.266 160.349 340.281 160.4 342 160.4V158.4ZM336.043 158.251C333.771 158.152 331.396 157.954 328.919 157.657L328.681 159.643C331.204 159.946 333.629 160.148 335.957 160.249L336.043 158.251ZM328.924 157.658C326.551 157.361 324.178 156.966 321.804 156.471L321.396 158.429C323.822 158.934 326.249 159.339 328.676 159.642L328.924 157.658ZM321.764 156.464C319.426 156.074 317.297 155.492 315.371 154.722L314.629 156.578C316.703 157.408 318.974 158.026 321.436 158.436L321.764 156.464ZM315.357 154.716C312.732 153.714 310.845 152.373 309.611 150.736C308.384 149.108 307.75 147.114 307.75 144.7H305.75C305.75 147.486 306.491 149.917 308.014 151.939C309.53 153.952 311.768 155.486 314.643 156.584L315.357 154.716ZM307.75 144.7V74.65H305.75V144.7H307.75ZM307.75 74.65C307.75 72.7197 308.253 71.4114 309.107 70.5571L307.693 69.1429C306.347 70.4886 305.75 72.3802 305.75 74.65H307.75ZM309.107 70.5571C310.178 69.4864 311.638 68.6063 313.53 67.9439L312.87 66.0561C310.762 66.7937 309.022 67.8136 307.693 69.1429L309.107 70.5571ZM313.533 67.943C316.832 66.7784 320.997 65.9404 326.048 65.4452L325.852 63.4548C320.703 63.9596 316.368 64.8216 312.867 66.057L313.533 67.943ZM326.067 65.4431C331.126 64.8479 336.337 64.55 341.7 64.55V62.55C336.263 62.55 330.974 62.8521 325.833 63.4568L326.067 65.4431ZM341.7 64.55C354.411 64.55 364.046 66.6891 370.721 70.8487L371.779 69.1513C364.654 64.7109 354.589 62.55 341.7 62.55V64.55ZM370.721 70.8487C377.293 74.9439 380.6 81.2512 380.6 89.95H382.6C382.6 80.6488 379.007 73.6561 371.779 69.1513L370.721 70.8487ZM380.6 89.95C380.6 94.2426 379.365 97.9205 376.915 101.031L378.485 102.269C381.235 98.7795 382.6 94.6574 382.6 89.95H380.6ZM376.924 101.019C374.457 104.056 371.123 106.306 366.877 107.753L367.523 109.647C372.077 108.094 375.743 105.644 378.476 102.281L376.924 101.019ZM366.93 109.663C371.755 111.014 375.737 113.465 378.904 117.016L380.396 115.684C376.963 111.835 372.645 109.186 367.47 107.737L366.93 109.663ZM378.914 117.027C382.124 120.52 383.75 124.92 383.75 130.3H385.75C385.75 124.48 383.976 119.58 380.386 115.673L378.914 117.027ZM383.75 130.3C383.75 139.91 380.183 146.921 373.106 151.511L374.194 153.189C381.917 148.179 385.75 140.49 385.75 130.3H383.75ZM373.109 151.509C366.039 156.061 355.711 158.4 342 158.4V160.4C355.889 160.4 366.661 158.039 374.191 153.191L373.109 151.509Z" fill="black" mask="url(#path-26-outside-1_14_334)"/>
<path d="M332.25 138.25H331.25V139.004L331.975 139.212L332.25 138.25ZM337.65 139.15L337.559 140.146L337.582 140.148L337.605 140.149L337.65 139.15ZM353.85 136.9L354.374 137.752L354.383 137.746L353.85 136.9ZM354.6 122.05L354.063 122.894L354.6 122.05ZM332.25 119.95V118.95H331.25V119.95H332.25ZM332.25 101.65H331.25V102.65H332.25V101.65ZM352.5 99.25L351.875 98.4691L351.865 98.477L351.856 98.4851L352.5 99.25ZM352.05 85.75L351.462 86.5587L351.47 86.5649L351.479 86.5709L352.05 85.75ZM336.75 83.5L336.7 82.5012L336.697 82.5014L336.75 83.5ZM332.25 83.95L332.071 82.9661L331.25 83.1154V83.95H332.25ZM328.8 158.65L328.676 159.642L328.681 159.643L328.8 158.65ZM321.6 157.45L321.804 156.471L321.784 156.467L321.764 156.464L321.6 157.45ZM315 155.65L315.371 154.722L315.364 154.719L315.357 154.716L315 155.65ZM308.4 69.85L309.107 70.5571L309.107 70.5571L308.4 69.85ZM313.2 67L313.53 67.9439L313.533 67.943L313.2 67ZM325.95 64.45L326.048 65.4452L326.057 65.4443L326.067 65.4431L325.95 64.45ZM371.25 70L371.779 69.1513L371.25 70ZM377.7 101.65L378.476 102.281L378.481 102.275L378.485 102.269L377.7 101.65ZM367.2 108.7L366.877 107.753L363.826 108.794L366.93 109.663L367.2 108.7ZM379.65 116.35L378.904 117.016L378.909 117.021L378.914 117.027L379.65 116.35ZM373.65 152.35L374.191 153.191L374.194 153.189L373.65 152.35ZM331.975 139.212C333.458 139.635 335.326 139.943 337.559 140.146L337.741 138.154C335.574 137.957 333.842 137.665 332.525 137.288L331.975 139.212ZM337.605 140.149C339.818 140.25 341.933 140.3 343.95 140.3V138.3C341.967 138.3 339.882 138.25 337.695 138.151L337.605 140.149ZM343.95 140.3C348.079 140.3 351.575 139.474 354.374 137.752L353.326 136.048C350.925 137.526 347.821 138.3 343.95 138.3V140.3ZM354.383 137.746C357.406 135.843 358.9 132.904 358.9 129.1H356.9C356.9 132.296 355.694 134.557 353.317 136.054L354.383 137.746ZM358.9 129.1C358.9 125.561 357.703 122.839 355.137 121.206L354.063 122.894C355.897 124.061 356.9 126.039 356.9 129.1H358.9ZM355.137 121.206C352.698 119.654 349.119 118.95 344.55 118.95V120.95C348.981 120.95 352.102 121.646 354.063 122.894L355.137 121.206ZM344.55 118.95H332.25V120.95H344.55V118.95ZM331.25 119.95V138.25H333.25V119.95H331.25ZM332.25 102.65H343.2V100.65H332.25V102.65ZM343.2 102.65C347.579 102.65 350.972 101.844 353.144 100.015L351.856 98.4851C350.228 99.8562 347.421 100.65 343.2 100.65V102.65ZM353.125 100.031C355.412 98.2009 356.5 95.533 356.5 92.2H354.5C354.5 95.067 353.588 97.0991 351.875 98.4691L353.125 100.031ZM356.5 92.2C356.5 89.1582 355.178 86.7076 352.621 84.9291L351.479 86.5709C353.522 87.9923 354.5 89.8418 354.5 92.2H356.5ZM352.638 84.9413C350.188 83.1592 346.586 82.35 342 82.35V84.35C346.414 84.35 349.512 85.1408 351.462 86.5587L352.638 84.9413ZM342 82.35C340.479 82.35 338.712 82.4007 336.7 82.5012L336.8 84.4987C338.788 84.3993 340.521 84.35 342 84.35V82.35ZM336.697 82.5014C334.78 82.6023 333.232 82.7551 332.071 82.9661L332.429 84.9339C333.468 84.7449 334.92 84.5977 336.803 84.4986L336.697 82.5014ZM331.25 83.95V101.65H333.25V83.95H331.25ZM342 158.4C340.319 158.4 338.334 158.351 336.043 158.251L335.957 160.249C338.266 160.349 340.281 160.4 342 160.4V158.4ZM336.043 158.251C333.771 158.152 331.396 157.954 328.919 157.657L328.681 159.643C331.204 159.946 333.629 160.148 335.957 160.249L336.043 158.251ZM328.924 157.658C326.551 157.361 324.178 156.966 321.804 156.471L321.396 158.429C323.822 158.934 326.249 159.339 328.676 159.642L328.924 157.658ZM321.764 156.464C319.426 156.074 317.297 155.492 315.371 154.722L314.629 156.578C316.703 157.408 318.974 158.026 321.436 158.436L321.764 156.464ZM315.357 154.716C312.732 153.714 310.845 152.373 309.611 150.736C308.384 149.108 307.75 147.114 307.75 144.7H305.75C305.75 147.486 306.491 149.917 308.014 151.939C309.53 153.952 311.768 155.486 314.643 156.584L315.357 154.716ZM307.75 144.7V74.65H305.75V144.7H307.75ZM307.75 74.65C307.75 72.7197 308.253 71.4114 309.107 70.5571L307.693 69.1429C306.347 70.4886 305.75 72.3802 305.75 74.65H307.75ZM309.107 70.5571C310.178 69.4864 311.638 68.6063 313.53 67.9439L312.87 66.0561C310.762 66.7937 309.022 67.8136 307.693 69.1429L309.107 70.5571ZM313.533 67.943C316.832 66.7784 320.997 65.9404 326.048 65.4452L325.852 63.4548C320.703 63.9596 316.368 64.8216 312.867 66.057L313.533 67.943ZM326.067 65.4431C331.126 64.8479 336.337 64.55 341.7 64.55V62.55C336.263 62.55 330.974 62.8521 325.833 63.4568L326.067 65.4431ZM341.7 64.55C354.411 64.55 364.046 66.6891 370.721 70.8487L371.779 69.1513C364.654 64.7109 354.589 62.55 341.7 62.55V64.55ZM370.721 70.8487C377.293 74.9439 380.6 81.2512 380.6 89.95H382.6C382.6 80.6488 379.007 73.6561 371.779 69.1513L370.721 70.8487ZM380.6 89.95C380.6 94.2426 379.365 97.9205 376.915 101.031L378.485 102.269C381.235 98.7795 382.6 94.6574 382.6 89.95H380.6ZM376.924 101.019C374.457 104.056 371.123 106.306 366.877 107.753L367.523 109.647C372.077 108.094 375.743 105.644 378.476 102.281L376.924 101.019ZM366.93 109.663C371.755 111.014 375.737 113.465 378.904 117.016L380.396 115.684C376.963 111.835 372.645 109.186 367.47 107.737L366.93 109.663ZM378.914 117.027C382.124 120.52 383.75 124.92 383.75 130.3H385.75C385.75 124.48 383.976 119.58 380.386 115.673L378.914 117.027ZM383.75 130.3C383.75 139.91 380.183 146.921 373.106 151.511L374.194 153.189C381.917 148.179 385.75 140.49 385.75 130.3H383.75ZM373.109 151.509C366.039 156.061 355.711 158.4 342 158.4V160.4C355.889 160.4 366.661 158.039 374.191 153.191L373.109 151.509Z" fill="black" fill-opacity="0.2" mask="url(#path-26-outside-1_14_334)"/>
<path d="M332.25 138.25H331.25V139.004L331.975 139.212L332.25 138.25ZM337.65 139.15L337.559 140.146L337.582 140.148L337.605 140.149L337.65 139.15ZM353.85 136.9L354.374 137.752L354.383 137.746L353.85 136.9ZM354.6 122.05L354.063 122.894L354.6 122.05ZM332.25 119.95V118.95H331.25V119.95H332.25ZM332.25 101.65H331.25V102.65H332.25V101.65ZM352.5 99.25L351.875 98.4691L351.865 98.477L351.856 98.4851L352.5 99.25ZM352.05 85.75L351.462 86.5587L351.47 86.5649L351.479 86.5709L352.05 85.75ZM336.75 83.5L336.7 82.5012L336.697 82.5014L336.75 83.5ZM332.25 83.95L332.071 82.9661L331.25 83.1154V83.95H332.25ZM328.8 158.65L328.676 159.642L328.681 159.643L328.8 158.65ZM321.6 157.45L321.804 156.471L321.784 156.467L321.764 156.464L321.6 157.45ZM315 155.65L315.371 154.722L315.364 154.719L315.357 154.716L315 155.65ZM308.4 69.85L309.107 70.5571L309.107 70.5571L308.4 69.85ZM313.2 67L313.53 67.9439L313.533 67.943L313.2 67ZM325.95 64.45L326.048 65.4452L326.057 65.4443L326.067 65.4431L325.95 64.45ZM371.25 70L371.779 69.1513L371.25 70ZM377.7 101.65L378.476 102.281L378.481 102.275L378.485 102.269L377.7 101.65ZM367.2 108.7L366.877 107.753L363.826 108.794L366.93 109.663L367.2 108.7ZM379.65 116.35L378.904 117.016L378.909 117.021L378.914 117.027L379.65 116.35ZM373.65 152.35L374.191 153.191L374.194 153.189L373.65 152.35ZM331.975 139.212C333.458 139.635 335.326 139.943 337.559 140.146L337.741 138.154C335.574 137.957 333.842 137.665 332.525 137.288L331.975 139.212ZM337.605 140.149C339.818 140.25 341.933 140.3 343.95 140.3V138.3C341.967 138.3 339.882 138.25 337.695 138.151L337.605 140.149ZM343.95 140.3C348.079 140.3 351.575 139.474 354.374 137.752L353.326 136.048C350.925 137.526 347.821 138.3 343.95 138.3V140.3ZM354.383 137.746C357.406 135.843 358.9 132.904 358.9 129.1H356.9C356.9 132.296 355.694 134.557 353.317 136.054L354.383 137.746ZM358.9 129.1C358.9 125.561 357.703 122.839 355.137 121.206L354.063 122.894C355.897 124.061 356.9 126.039 356.9 129.1H358.9ZM355.137 121.206C352.698 119.654 349.119 118.95 344.55 118.95V120.95C348.981 120.95 352.102 121.646 354.063 122.894L355.137 121.206ZM344.55 118.95H332.25V120.95H344.55V118.95ZM331.25 119.95V138.25H333.25V119.95H331.25ZM332.25 102.65H343.2V100.65H332.25V102.65ZM343.2 102.65C347.579 102.65 350.972 101.844 353.144 100.015L351.856 98.4851C350.228 99.8562 347.421 100.65 343.2 100.65V102.65ZM353.125 100.031C355.412 98.2009 356.5 95.533 356.5 92.2H354.5C354.5 95.067 353.588 97.0991 351.875 98.4691L353.125 100.031ZM356.5 92.2C356.5 89.1582 355.178 86.7076 352.621 84.9291L351.479 86.5709C353.522 87.9923 354.5 89.8418 354.5 92.2H356.5ZM352.638 84.9413C350.188 83.1592 346.586 82.35 342 82.35V84.35C346.414 84.35 349.512 85.1408 351.462 86.5587L352.638 84.9413ZM342 82.35C340.479 82.35 338.712 82.4007 336.7 82.5012L336.8 84.4987C338.788 84.3993 340.521 84.35 342 84.35V82.35ZM336.697 82.5014C334.78 82.6023 333.232 82.7551 332.071 82.9661L332.429 84.9339C333.468 84.7449 334.92 84.5977 336.803 84.4986L336.697 82.5014ZM331.25 83.95V101.65H333.25V83.95H331.25ZM342 158.4C340.319 158.4 338.334 158.351 336.043 158.251L335.957 160.249C338.266 160.349 340.281 160.4 342 160.4V158.4ZM336.043 158.251C333.771 158.152 331.396 157.954 328.919 157.657L328.681 159.643C331.204 159.946 333.629 160.148 335.957 160.249L336.043 158.251ZM328.924 157.658C326.551 157.361 324.178 156.966 321.804 156.471L321.396 158.429C323.822 158.934 326.249 159.339 328.676 159.642L328.924 157.658ZM321.764 156.464C319.426 156.074 317.297 155.492 315.371 154.722L314.629 156.578C316.703 157.408 318.974 158.026 321.436 158.436L321.764 156.464ZM315.357 154.716C312.732 153.714 310.845 152.373 309.611 150.736C308.384 149.108 307.75 147.114 307.75 144.7H305.75C305.75 147.486 306.491 149.917 308.014 151.939C309.53 153.952 311.768 155.486 314.643 156.584L315.357 154.716ZM307.75 144.7V74.65H305.75V144.7H307.75ZM307.75 74.65C307.75 72.7197 308.253 71.4114 309.107 70.5571L307.693 69.1429C306.347 70.4886 305.75 72.3802 305.75 74.65H307.75ZM309.107 70.5571C310.178 69.4864 311.638 68.6063 313.53 67.9439L312.87 66.0561C310.762 66.7937 309.022 67.8136 307.693 69.1429L309.107 70.5571ZM313.533 67.943C316.832 66.7784 320.997 65.9404 326.048 65.4452L325.852 63.4548C320.703 63.9596 316.368 64.8216 312.867 66.057L313.533 67.943ZM326.067 65.4431C331.126 64.8479 336.337 64.55 341.7 64.55V62.55C336.263 62.55 330.974 62.8521 325.833 63.4568L326.067 65.4431ZM341.7 64.55C354.411 64.55 364.046 66.6891 370.721 70.8487L371.779 69.1513C364.654 64.7109 354.589 62.55 341.7 62.55V64.55ZM370.721 70.8487C377.293 74.9439 380.6 81.2512 380.6 89.95H382.6C382.6 80.6488 379.007 73.6561 371.779 69.1513L370.721 70.8487ZM380.6 89.95C380.6 94.2426 379.365 97.9205 376.915 101.031L378.485 102.269C381.235 98.7795 382.6 94.6574 382.6 89.95H380.6ZM376.924 101.019C374.457 104.056 371.123 106.306 366.877 107.753L367.523 109.647C372.077 108.094 375.743 105.644 378.476 102.281L376.924 101.019ZM366.93 109.663C371.755 111.014 375.737 113.465 378.904 117.016L380.396 115.684C376.963 111.835 372.645 109.186 367.47 107.737L366.93 109.663ZM378.914 117.027C382.124 120.52 383.75 124.92 383.75 130.3H385.75C385.75 124.48 383.976 119.58 380.386 115.673L378.914 117.027ZM383.75 130.3C383.75 139.91 380.183 146.921 373.106 151.511L374.194 153.189C381.917 148.179 385.75 140.49 385.75 130.3H383.75ZM373.109 151.509C366.039 156.061 355.711 158.4 342 158.4V160.4C355.889 160.4 366.661 158.039 374.191 153.191L373.109 151.509Z" fill="black" fill-opacity="0.2" mask="url(#path-26-outside-1_14_334)"/>
</svg>
