<svg width="463" height="428" viewBox="0 0 463 428" fill="none" xmlns="http://www.w3.org/2000/svg">
<path d="M164.363 75.7647C212.932 123.128 172.559 235.66 140.375 305.181C136.286 314.013 130.623 322.079 124.282 329.463C79.0319 382.16 164.362 315.908 164.363 225.259M316.077 75.7649C367.876 126.277 374.781 213.154 342.077 280.688" stroke="#643744" stroke-width="20" stroke-linecap="round"/>
<path d="M224.19 330.206C230.738 314.851 228.062 309.184 217.561 301.729C200.533 327.087 186.529 335.053 154.796 339.741C111.375 346.774 90.7449 345.232 65.5175 325.502C60.7019 343.973 63.5104 357.25 132.747 359.064C178.064 356.684 197.722 350.032 224.19 330.206Z" fill="white" stroke="#643744" stroke-width="7"/>
<path d="M167.771 248.59C130.794 247.647 118.936 228.505 136.928 216.935C154.92 205.366 163.903 210.339 188.332 216.935C212.761 223.532 204.748 249.534 167.771 248.59Z" fill="white" stroke="#643744" stroke-width="7"/>
<path d="M121.113 260.794L136.669 241.216C161.668 247.087 175.5 247.626 199.434 238.546C235.626 304.872 222.111 317.065 183.202 332.113C149.073 342.501 128.313 345.85 92.165 340.376C59.4627 328.135 60.7468 315.755 70.5218 291.559C83.2103 270.501 93.1262 262.273 121.113 260.794Z" fill="#FF5A2A" stroke="#643744" stroke-width="7"/>
<path d="M130.283 250.423C137.249 249.109 141.234 249.236 148.638 252.947C155.958 257.705 158.357 260.888 161.395 266.954" stroke="#643744" stroke-width="7" stroke-linecap="round"/>
<path d="M120.273 260.851C145.702 264.963 149.048 273.818 157.608 288.057" stroke="#643744" stroke-width="7" stroke-linecap="round"/>
<path d="M298.551 330.206C292.003 314.851 294.68 309.184 305.18 301.729C322.209 327.087 336.212 335.053 367.945 339.741C411.366 346.774 431.996 345.232 457.224 325.502C462.039 343.973 459.231 357.25 389.994 359.064C344.677 356.684 325.019 350.032 298.551 330.206Z" fill="white" stroke="#643744" stroke-width="7"/>
<path d="M354.97 248.59C391.948 247.647 403.805 228.505 385.813 216.935C367.821 205.366 358.838 210.339 334.409 216.935C309.981 223.532 317.993 249.534 354.97 248.59Z" fill="white" stroke="#643744" stroke-width="7"/>
<path d="M401.628 260.794L386.072 241.216C361.073 247.087 347.242 247.626 323.307 238.546C287.115 304.872 300.63 317.065 339.539 332.113C373.668 342.501 394.429 345.85 430.576 340.376C463.279 328.135 461.994 315.755 452.219 291.559C439.531 270.501 429.615 262.273 401.628 260.794Z" fill="#FF5A2A" stroke="#643744" stroke-width="7"/>
<path d="M392.458 250.423C385.493 249.109 381.507 249.236 374.103 252.947C366.783 257.705 364.384 260.888 361.346 266.954" stroke="#643744" stroke-width="7" stroke-linecap="round"/>
<path d="M402.468 260.851C377.04 264.963 373.693 273.818 365.133 288.057" stroke="#643744" stroke-width="7" stroke-linecap="round"/>
</svg>
