<svg width="795" height="845" viewBox="0 0 795 845" fill="none" xmlns="http://www.w3.org/2000/svg">
<path d="M554.93 550.941C571.571 566.542 584.981 577.768 596.57 585.852C624.063 605.03 680.005 618.407 677.03 585.018V585.018" stroke="#643744" stroke-width="20"/>
<rect x="343.153" y="335.975" width="33" height="321" rx="16.5" transform="rotate(-31.5487 343.153 335.975)" fill="#FEF9F3" stroke="#643744" stroke-width="10"/>
<path d="M19.4344 294.174C12.4992 282.878 16.0341 268.099 27.3298 261.164L421.044 19.4345C432.34 12.4993 447.119 16.0342 454.054 27.3299L555.036 191.804C561.972 203.099 558.437 217.878 547.141 224.814L153.427 466.543C142.131 473.478 127.352 469.943 120.417 458.647L19.4344 294.174Z" fill="#FEF9F3" stroke="#643744" stroke-width="10"/>
<path d="M416.02 489.505C415.262 477.193 422.172 471.607 442.96 463.162L462.885 450.929L452.395 433.845C454.972 416.298 461.115 413.6 475.391 413.845C493.118 422.932 499.155 431.012 508.954 446.168C524.141 461.221 531.78 468.115 543.941 477.617C542.804 483.61 542.116 486.084 540.821 489.334C552.433 498.282 557.154 504.397 559.177 519.232C563.718 540.782 559.001 548.074 546.496 558.383C540.381 564.626 536.017 566.607 527.994 569.743C539.444 588.983 539.323 596.964 526.649 605.855C509.849 608.939 500.444 599.979 483.734 569.472C479.31 582.356 473.227 584.033 458.503 581.043C444.779 576.225 436.803 573.821 440.147 551.145C424.75 541.291 412.33 536.858 426.061 518.626L477.296 487.169C491.274 484.266 496.272 487.432 502.892 496.939C509.992 509.003 509.661 515.908 502.645 528.456L507.253 535.961C510.081 538.815 511.649 541.409 512.23 544.068L527.994 569.743C536.017 566.607 540.381 564.626 546.496 558.383C559.001 548.074 563.718 540.782 559.177 519.232C557.154 504.397 552.433 498.282 540.821 489.334C542.116 486.084 542.804 483.61 543.941 477.617C531.78 468.115 524.141 461.221 508.954 446.168C499.155 431.012 493.118 422.932 475.391 413.845C461.115 413.6 454.972 416.298 452.395 433.845L462.885 450.929L442.96 463.162C465.449 449.932 470.643 456.163 479.392 468.239C481.209 480.067 473.129 486.234 451.903 496.879C431.962 504.621 418.08 513.805 416.02 489.505Z" fill="white"/>
<path d="M442.96 463.162C422.172 471.607 415.262 477.193 416.02 489.505C418.08 513.805 431.962 504.621 451.903 496.879C473.129 486.234 481.209 480.067 479.392 468.239C470.643 456.163 465.449 449.932 442.96 463.162ZM442.96 463.162L462.885 450.929L452.395 433.845C454.972 416.298 461.115 413.6 475.391 413.845C493.118 422.932 499.155 431.012 508.954 446.168C524.141 461.221 531.78 468.115 543.941 477.617C542.804 483.61 542.116 486.084 540.821 489.334M440.147 551.145C424.75 541.291 412.33 536.858 426.061 518.626L477.296 487.169C491.274 484.266 496.272 487.432 502.892 496.939C509.992 509.003 509.661 515.908 502.645 528.456L527.994 569.743M440.147 551.145C436.803 573.821 444.779 576.225 458.503 581.043C473.227 584.033 479.31 582.356 483.734 569.472M440.147 551.145L502.97 532.177C514.617 541.43 514.248 547.209 508.966 557.902C502.461 575.114 496.426 575.702 483.734 569.472M532.084 522.143C540.093 510.951 544.57 504.672 540.821 489.334M540.821 489.334C552.433 498.282 557.154 504.397 559.177 519.232C563.718 540.782 559.001 548.074 546.496 558.383C540.381 564.626 536.017 566.607 527.994 569.743M527.994 569.743C539.444 588.983 539.323 596.964 526.649 605.855C509.849 608.939 500.444 599.979 483.734 569.472" stroke="#643744" stroke-width="10" stroke-linecap="round"/>
<path d="M667.258 616.65L650.941 590.074C645.451 581.132 648.249 569.432 657.192 563.941C666.134 558.451 677.834 561.249 683.325 570.192L699.642 596.768C706.846 608.502 699.566 623.764 685.912 625.549C678.484 626.52 671.178 623.035 667.258 616.65Z" fill="#FFEF8D" stroke="#643744" stroke-width="7" stroke-linecap="round"/>
</svg>
