<svg width="520" height="684" viewBox="0 0 520 684" fill="none" xmlns="http://www.w3.org/2000/svg">
<path d="M327 528C335.629 548.381 343.689 564.468 351.762 577.473C377.957 619.667 441.196 667.967 471.5 628.62V628.62" stroke="#643744" stroke-width="20"/>
<rect x="259" y="234" width="33" height="321" rx="16.5" fill="#FEF9F3" stroke="#643744" stroke-width="10"/>
<path d="M5 29C5 15.7452 15.7452 5 29 5H491C504.255 5 515 15.7452 515 29V222C515 235.255 504.255 246 491 246H29C15.7452 246 5 235.255 5 222V29Z" fill="#FEF9F3" stroke="#643744" stroke-width="10"/>
<path d="M240.766 402.963C246.563 392.075 255.374 390.929 277.507 394.61H300.888V374.562C312.265 360.957 318.912 361.872 330.949 369.55C341.301 386.569 342.219 396.614 342.64 414.657C347.706 435.431 350.608 445.303 356 459.763C351.896 464.275 350.014 466.024 347.21 468.116C352.425 481.817 353.249 489.499 347.21 503.199C339.805 523.94 331.97 527.686 315.919 529.929C307.441 532.05 302.685 531.454 294.208 529.929C293.898 552.316 289.619 559.055 274.167 560C258.236 553.838 254.91 541.281 256.632 506.54C246.12 515.205 240.059 513.451 229.076 503.199C219.901 491.913 214.361 485.691 229.076 468.116C221.111 451.663 212.845 441.386 234.086 433.034H294.208C307.639 437.874 310.242 443.186 310.909 454.752C310.647 468.747 306.752 474.459 294.208 481.481V490.288C295.125 494.2 295.103 497.231 294.208 499.801V529.929C302.685 531.454 307.441 532.05 315.919 529.929C331.97 527.686 339.805 523.94 347.21 503.199C353.249 489.499 352.425 481.817 347.21 468.116C350.014 466.024 351.896 464.275 356 459.763C350.608 445.303 347.706 435.431 342.64 414.657C342.219 396.614 341.301 386.569 330.949 369.55C318.912 361.872 312.265 360.957 300.888 374.562V394.61H277.507C303.595 395.101 304.762 403.129 305.898 417.998C301.258 429.029 291.146 430.057 267.487 428.022C246.443 424.186 229.808 424.749 240.766 402.963Z" fill="white"/>
<path d="M277.507 394.61C255.374 390.929 246.563 392.075 240.766 402.963C229.808 424.749 246.443 424.186 267.487 428.022C291.146 430.057 301.258 429.029 305.898 417.998C304.762 403.129 303.595 395.101 277.507 394.61ZM277.507 394.61H300.888V374.562C312.265 360.957 318.912 361.872 330.949 369.55C341.301 386.569 342.219 396.614 342.64 414.657C347.706 435.431 350.608 445.303 356 459.763C351.896 464.275 350.014 466.024 347.21 468.116M229.076 468.116C221.111 451.663 212.845 441.386 234.086 433.034H294.208C307.639 437.874 310.242 443.186 310.909 454.752C310.647 468.747 306.752 474.459 294.208 481.481V529.929M229.076 468.116C214.361 485.691 219.901 491.913 229.076 503.199C240.059 513.451 246.12 515.205 256.632 506.54M229.076 468.116L292.538 484.823C297.622 498.802 294.283 503.533 284.188 509.882C269.639 521.147 264.187 518.49 256.632 506.54M322.599 491.505C335.28 486.158 342.381 483.149 347.21 468.116M347.21 468.116C352.425 481.817 353.249 489.499 347.21 503.199C339.805 523.94 331.97 527.686 315.919 529.929C307.441 532.05 302.685 531.454 294.208 529.929M294.208 529.929C293.898 552.316 289.619 559.055 274.167 560C258.236 553.838 254.91 541.281 256.632 506.54" stroke="#643744" stroke-width="10" stroke-linecap="round"/>
<path d="M449 654.185V623C449 612.507 457.507 604 468 604C478.493 604 487 612.507 487 623V654.185C487 667.955 472.81 677.152 460.241 671.529C453.402 668.469 449 661.677 449 654.185Z" fill="#FFEF8D" stroke="#643744" stroke-width="7" stroke-linecap="round"/>
</svg>
