<svg width="304" height="350" viewBox="0 0 304 350" fill="none" xmlns="http://www.w3.org/2000/svg">
<path d="M56.5454 21.0258C87.8225 53.3354 130.113 122.817 145.489 166.163C151.782 183.904 150.508 198.375 157.526 180.908C163.146 166.923 164.778 150.658 140.887 152.487" stroke="#643744" stroke-width="20"/>
<path d="M173.207 292.165C153.472 288.239 141.674 284.312 128.379 267.078C126.775 264.999 124.473 263.554 121.904 263.008C108.832 260.231 102.095 255.731 95.2135 242.975C94.7047 242.032 94.3736 241.004 94.2073 239.946L88.6069 204.289C88.3978 202.959 88.4598 201.599 88.7891 200.293L96.5686 169.435C97.4177 166.067 96.4021 162.544 94.1652 159.887C88.7752 153.485 86.7862 148.236 86.6698 140.405C86.6328 137.919 87.7196 135.557 89.5001 133.821C104.318 119.373 115.455 111.827 143.948 108.357C146.219 108.08 148.554 108.592 150.345 110.014C156.006 114.511 158.985 119.972 162.084 128.961C163.36 132.663 166.575 135.343 170.422 136.075C186.784 139.185 197.459 146.14 214.046 166.74C214.619 167.452 215.098 168.258 215.452 169.099C224.34 190.243 228.645 202.975 223.756 232.61C219.751 265.466 206.363 276.138 179.973 291.075C177.924 292.235 175.515 292.625 173.207 292.165Z" fill="white" stroke="#643744" stroke-width="10"/>
<path d="M125.703 261.107C144.891 239.798 149.5 228.191 151.885 207.806M151.885 207.806C145.97 209.235 142.2 211.963 135.203 218.015M151.885 207.806C165.233 215.388 168.687 223.724 172.303 241.169M151.885 207.806C160.741 201.596 166.426 201.998 177.417 207.232" stroke="#643744" stroke-width="10"/>
<path d="M38 54.1853V23C38 12.5066 46.5066 4 57 4C67.4934 4 76 12.5066 76 23V54.1853C76 67.9549 61.8101 77.1519 49.241 71.5289C42.4024 68.4695 38 61.6771 38 54.1853Z" fill="#FFEF8D" stroke="#643744" stroke-width="7" stroke-linecap="round"/>
</svg>
